# Blender v2.93.6 OBJ File: 'chair.blend'
# www.blender.org
mtllib chair.mtl
o Cube_Cube.004
v -1.000000 -0.150300 -0.649700
v -1.000000 0.650300 -0.649700
v -1.000000 -0.150300 -0.950300
v -1.000000 0.650300 -0.950300
v -1.400000 -1.000000 -0.600000
v -1.400000 1.000000 -0.600000
v -1.400000 -1.000000 -1.000000
v -1.400000 1.000000 -1.000000
v -1.000000 -1.000000 -1.000000
v -1.000000 -1.000000 -0.600000
v -1.000000 1.000000 -0.600000
v -1.000000 1.000000 -1.000000
v 0.008864 -0.150300 -0.950300
v 0.008864 -0.150300 -0.649700
v 0.008864 0.650300 -0.649700
v 0.008864 0.650300 -0.950300
v -1.000000 -2.236395 -1.000000
v -1.000000 -2.236395 -0.600000
v -1.400000 -2.236395 -1.000000
v -1.400000 -2.236395 -0.600000
v -1.000000 -1.550300 -0.649700
v -1.000000 -0.749700 -0.649700
v -1.000000 -1.550300 -0.950300
v -1.000000 -0.749700 -0.950300
v 0.008864 -1.550300 -0.950300
v 0.008864 -1.550300 -0.649700
v 0.008864 -0.749700 -0.649700
v 0.008864 -0.749700 -0.950300
v -1.000000 -2.636395 -1.000000
v -1.000000 -2.636395 -0.600000
v -1.400000 -2.636395 -1.000000
v -1.400000 -2.636395 -0.600000
v -1.000000 -2.236395 1.501871
v -1.400000 -2.236395 1.501871
v -1.000000 -2.636395 1.501871
v -1.400000 -2.636395 1.501871
v 0.020026 -2.636395 -0.600000
v 0.020026 -2.236395 -0.600000
v 0.020026 -2.636395 1.501871
v 0.020026 -2.236395 1.501871
v -1.000000 -4.436395 -1.000000
v -1.000000 -4.436395 -0.600000
v -1.400000 -4.436395 -1.000000
v -1.400000 -4.436395 -0.600000
v -1.000000 -2.636395 1.100000
v -1.000000 -2.636395 1.500000
v -1.400000 -2.636395 1.100000
v -1.400000 -2.636395 1.500000
v -1.000000 -4.436395 1.100000
v -1.000000 -4.436395 1.500000
v -1.400000 -4.436395 1.100000
v -1.400000 -4.436395 1.500000
v 1.000000 -0.150300 -0.649700
v 1.000000 0.650300 -0.649700
v 1.000000 -0.150300 -0.950300
v 1.000000 0.650300 -0.950300
v 1.400000 -1.000000 -0.600000
v 1.400000 1.000000 -0.600000
v 1.400000 -1.000000 -1.000000
v 1.400000 1.000000 -1.000000
v 1.000000 -1.000000 -1.000000
v 1.000000 -1.000000 -0.600000
v 1.000000 1.000000 -0.600000
v 1.000000 1.000000 -1.000000
v -0.008864 -0.150300 -0.950300
v -0.008864 -0.150300 -0.649700
v -0.008864 0.650300 -0.649700
v -0.008864 0.650300 -0.950300
v 1.000000 -2.236395 -1.000000
v 1.000000 -2.236395 -0.600000
v 1.400000 -2.236395 -1.000000
v 1.400000 -2.236395 -0.600000
v 1.000000 -1.550300 -0.649700
v 1.000000 -0.749700 -0.649700
v 1.000000 -1.550300 -0.950300
v 1.000000 -0.749700 -0.950300
v -0.008864 -1.550300 -0.950300
v -0.008864 -1.550300 -0.649700
v -0.008864 -0.749700 -0.649700
v -0.008864 -0.749700 -0.950300
v 1.000000 -2.636395 -1.000000
v 1.000000 -2.636395 -0.600000
v 1.400000 -2.636395 -1.000000
v 1.400000 -2.636395 -0.600000
v 1.000000 -2.236395 1.501871
v 1.400000 -2.236395 1.501871
v 1.000000 -2.636395 1.501871
v 1.400000 -2.636395 1.501871
v -0.020026 -2.636395 -0.600000
v -0.020026 -2.236395 -0.600000
v -0.020026 -2.636395 1.501871
v -0.020026 -2.236395 1.501871
v 1.000000 -4.436395 -1.000000
v 1.000000 -4.436395 -0.600000
v 1.400000 -4.436395 -1.000000
v 1.400000 -4.436395 -0.600000
v 1.000000 -2.636395 1.100000
v 1.000000 -2.636395 1.500000
v 1.400000 -2.636395 1.100000
v 1.400000 -2.636395 1.500000
v 1.000000 -4.436395 1.100000
v 1.000000 -4.436395 1.500000
v 1.400000 -4.436395 1.100000
v 1.400000 -4.436395 1.500000
vt 0.522242 0.834469
vt 0.522242 0.995974
vt 0.569786 0.995974
vt 0.569786 0.834469
vt 0.458975 0.550121
vt 0.395709 0.550121
vt 0.395709 0.870294
vt 0.458975 0.870294
vt 0.332443 0.550121
vt 0.332443 0.870294
vt 0.810107 0.197930
vt 0.746841 0.197930
vt 0.746841 0.518104
vt 0.810107 0.518104
vt 0.395709 0.352191
vt 0.332443 0.352191
vt 0.063266 0.870294
vt 0.000000 0.870294
vt 0.000000 0.934329
vt 0.063266 0.934329
vt 0.514381 0.686146
vt 0.522242 0.550121
vt 0.466836 0.686146
vt 0.514381 0.814312
vt 0.522242 0.870294
vt 0.466836 0.814312
vt 0.794385 0.854585
vt 0.746841 0.854585
vt 0.746841 0.982750
vt 0.794385 0.982750
vt 0.617330 0.995974
vt 0.617330 0.834469
vt 0.569786 0.834469
vt 0.569786 0.995974
vt 0.522242 0.672963
vt 0.522242 0.834469
vt 0.648869 0.834469
vt 0.648869 0.672963
vt 0.936734 0.161506
vt 0.936734 0.000000
vt 0.810107 0.000000
vt 0.810107 0.161506
vt 0.458975 0.352191
vt 0.458975 0.288156
vt 0.395709 0.288156
vt 0.810107 0.000000
vt 0.746841 0.000000
vt 0.522242 0.352191
vt 0.936639 0.772673
vt 0.936639 0.934178
vt 0.984183 0.934178
vt 0.984183 0.772673
vt 0.984278 0.449662
vt 0.984278 0.288156
vt 0.936734 0.288156
vt 0.936734 0.449662
vt 0.810107 0.161506
vt 0.810107 0.323011
vt 0.936734 0.323011
vt 0.936734 0.161506
vt 0.936734 0.484517
vt 0.936734 0.323011
vt 0.810107 0.323011
vt 0.810107 0.484517
vt 0.873373 0.772673
vt 0.873373 0.484517
vt 0.810107 0.484517
vt 0.810107 0.772673
vt 0.332443 0.288156
vt 0.522242 0.288156
vt 0.683574 0.000000
vt 0.683574 0.336482
vt 0.746840 0.336482
vt 0.746840 0.000000
vt 0.810107 1.000000
vt 0.873373 1.000000
vt 0.873373 0.935965
vt 0.810107 0.935965
vt 0.000000 0.288156
vt 0.000000 0.352191
vt 0.585508 0.672963
vt 0.746841 0.672963
vt 0.746841 0.336482
vt 0.585508 0.336482
vt 0.522242 0.336482
vt 0.522242 0.672963
vt 0.746840 0.518104
vt 0.746840 0.854585
vt 0.810107 0.854585
vt 0.810107 0.518104
vt 0.522242 0.000000
vt 0.522242 0.336482
vt 0.873373 0.772673
vt 0.810107 0.772673
vt 0.873373 0.772673
vt 0.873373 0.935965
vt 0.936639 0.935965
vt 0.936639 0.772673
vt 0.126532 0.870294
vt 0.063266 0.870294
vt 0.063266 0.934329
vt 0.126532 0.934329
vt 0.458976 0.000000
vt 0.395709 0.000000
vt 0.332443 0.000000
vt 0.522242 0.000000
vt 0.936639 0.772673
vt 0.936639 0.484517
vt 0.873373 0.484517
vt 0.873373 0.772673
vt 0.189798 0.870294
vt 0.126532 0.870294
vt 0.126532 0.934329
vt 0.189798 0.934329
vt 0.712135 0.961119
vt 0.712135 0.672963
vt 0.648869 0.672963
vt 0.648869 0.961119
vt 1.000000 0.288156
vt 1.000000 0.000000
vt 0.936734 0.000000
vt 0.936734 0.288156
vt 0.999905 0.772673
vt 0.999905 0.484517
vt 0.936639 0.484517
vt 0.936639 0.772673
vt 0.522242 0.834469
vt 0.569786 0.834469
vt 0.569786 0.995974
vt 0.522242 0.995974
vt 0.458975 0.550121
vt 0.458975 0.870294
vt 0.395709 0.870294
vt 0.395709 0.550121
vt 0.332443 0.870294
vt 0.332443 0.550121
vt 0.810107 0.197930
vt 0.810107 0.518104
vt 0.746841 0.518104
vt 0.746841 0.197930
vt 0.332443 0.352191
vt 0.395709 0.352191
vt 0.063266 0.870294
vt 0.063266 0.934329
vt 0.000000 0.934329
vt 0.000000 0.870294
vt 0.514381 0.686146
vt 0.466836 0.686146
vt 0.522242 0.550121
vt 0.514381 0.814312
vt 0.522242 0.870294
vt 0.466836 0.814312
vt 0.794385 0.854585
vt 0.794385 0.982750
vt 0.746841 0.982750
vt 0.746841 0.854585
vt 0.617330 0.995974
vt 0.569786 0.995974
vt 0.569786 0.834469
vt 0.617330 0.834469
vt 0.522242 0.672963
vt 0.648869 0.672963
vt 0.648869 0.834469
vt 0.522242 0.834469
vt 0.936734 0.161506
vt 0.810107 0.161506
vt 0.810107 0.000000
vt 0.936734 0.000000
vt 0.458975 0.352191
vt 0.395709 0.288156
vt 0.458975 0.288156
vt 0.746841 0.000000
vt 0.810107 0.000000
vt 0.522242 0.352191
vt 0.936639 0.772673
vt 0.984183 0.772673
vt 0.984183 0.934178
vt 0.936639 0.934178
vt 0.984278 0.449662
vt 0.936734 0.449662
vt 0.936734 0.288156
vt 0.984278 0.288156
vt 0.810107 0.161506
vt 0.936734 0.161506
vt 0.936734 0.323011
vt 0.810107 0.323011
vt 0.936734 0.484517
vt 0.810107 0.484517
vt 0.810107 0.323011
vt 0.936734 0.323011
vt 0.873373 0.772673
vt 0.810107 0.772673
vt 0.810107 0.484517
vt 0.873373 0.484517
vt 0.332443 0.288156
vt 0.522242 0.288156
vt 0.683574 0.000000
vt 0.746840 0.000000
vt 0.746840 0.336482
vt 0.683574 0.336482
vt 0.810107 1.000000
vt 0.810107 0.935965
vt 0.873373 0.935965
vt 0.873373 1.000000
vt 0.000000 0.352191
vt 0.000000 0.288156
vt 0.585508 0.672963
vt 0.585508 0.336482
vt 0.746841 0.336482
vt 0.746841 0.672963
vt 0.522242 0.336482
vt 0.522242 0.672963
vt 0.746840 0.518104
vt 0.810107 0.518104
vt 0.810107 0.854585
vt 0.746840 0.854585
vt 0.522242 0.336482
vt 0.522242 0.000000
vt 0.810107 0.772673
vt 0.873373 0.772673
vt 0.873373 0.772673
vt 0.936639 0.772673
vt 0.936639 0.935965
vt 0.873373 0.935965
vt 0.126532 0.870294
vt 0.126532 0.934329
vt 0.063266 0.934329
vt 0.063266 0.870294
vt 0.395709 0.000000
vt 0.458976 0.000000
vt 0.332443 0.000000
vt 0.522242 0.000000
vt 0.936639 0.772673
vt 0.873373 0.772673
vt 0.873373 0.484517
vt 0.936639 0.484517
vt 0.189798 0.870294
vt 0.189798 0.934329
vt 0.126532 0.934329
vt 0.126532 0.870294
vt 0.712135 0.961119
vt 0.648869 0.961119
vt 0.648869 0.672963
vt 0.712135 0.672963
vt 1.000000 0.288156
vt 0.936734 0.288156
vt 0.936734 0.000000
vt 1.000000 0.000000
vt 0.999905 0.772673
vt 0.936639 0.772673
vt 0.936639 0.484517
vt 0.999905 0.484517
vn 0.0000 1.0000 0.0000
vn 0.0000 0.0000 -1.0000
vn -1.0000 0.0000 0.0000
vn 0.0000 0.0000 1.0000
vn 1.0000 0.0000 0.0000
vn 0.0000 -1.0000 0.0000
usemtl None
s off
f 2/1/1 15/2/1 16/3/1 4/4/1
f 9/5/2 7/6/2 8/7/2 12/8/2
f 7/6/3 5/9/3 6/10/3 8/7/3
f 5/11/4 10/12/4 11/13/4 6/14/4
f 7/6/3 19/15/3 20/16/3 5/9/3
f 8/17/1 6/18/1 11/19/1 12/20/1
f 1/21/5 10/22/5 9/5/5 3/23/5
f 2/24/5 11/25/5 10/22/5 1/21/5
f 4/26/5 12/8/5 11/25/5 2/24/5
f 3/23/5 9/5/5 12/8/5 4/26/5
f 14/27/5 13/28/5 16/29/5 15/30/5
f 3/31/6 13/32/6 14/33/6 1/34/6
f 4/35/2 16/36/2 13/37/2 3/38/2
f 1/39/4 14/40/4 15/41/4 2/42/4
f 17/43/2 29/44/2 31/45/2 19/15/2
f 5/11/4 20/46/4 18/47/4 10/12/4
f 9/5/2 17/43/2 19/15/2 7/6/2
f 10/22/5 18/48/5 17/43/5 9/5/5
f 22/49/1 27/50/1 28/51/1 24/52/1
f 23/53/6 25/54/6 26/55/6 21/56/6
f 24/57/2 28/58/2 25/59/2 23/60/2
f 21/61/4 26/62/4 27/63/4 22/64/4
f 32/65/4 44/66/4 42/67/4 30/68/4
f 19/15/3 31/45/3 32/69/3 20/16/3
f 18/48/5 30/70/5 29/44/5 17/43/5
f 30/71/6 35/72/6 36/73/6 32/74/6
f 34/75/4 36/76/4 35/77/4 33/78/4
f 32/69/3 36/79/3 34/80/3 20/16/3
f 33/81/1 40/82/1 38/83/1 18/84/1
f 20/85/1 34/86/1 33/81/1 18/84/1
f 38/87/5 40/88/5 39/89/5 37/90/5
f 30/71/6 37/91/6 39/92/6 35/72/6
f 35/77/4 39/93/4 40/94/4 33/78/4
f 18/95/2 38/96/2 37/97/2 30/98/2
f 41/99/6 42/100/6 44/101/6 43/102/6
f 29/44/2 41/103/2 43/104/2 31/45/2
f 31/45/3 43/104/3 44/105/3 32/69/3
f 30/70/5 42/106/5 41/103/5 29/44/5
f 48/107/4 52/108/4 50/109/4 46/110/4
f 49/111/6 50/112/6 52/113/6 51/114/6
f 45/115/2 49/116/2 51/117/2 47/118/2
f 47/119/3 51/120/3 52/121/3 48/122/3
f 46/123/5 50/124/5 49/125/5 45/126/5
f 54/127/1 56/128/1 68/129/1 67/130/1
f 61/131/2 64/132/2 60/133/2 59/134/2
f 59/134/5 60/133/5 58/135/5 57/136/5
f 57/137/4 58/138/4 63/139/4 62/140/4
f 59/134/5 57/136/5 72/141/5 71/142/5
f 60/143/1 64/144/1 63/145/1 58/146/1
f 53/147/3 55/148/3 61/131/3 62/149/3
f 54/150/3 53/147/3 62/149/3 63/151/3
f 56/152/3 54/150/3 63/151/3 64/132/3
f 55/148/3 56/152/3 64/132/3 61/131/3
f 66/153/3 67/154/3 68/155/3 65/156/3
f 55/157/6 53/158/6 66/159/6 65/160/6
f 56/161/2 55/162/2 65/163/2 68/164/2
f 53/165/4 54/166/4 67/167/4 66/168/4
f 69/169/2 71/142/2 83/170/2 81/171/2
f 57/137/4 62/140/4 70/172/4 72/173/4
f 61/131/2 59/134/2 71/142/2 69/169/2
f 62/149/3 61/131/3 69/169/3 70/174/3
f 74/175/1 76/176/1 80/177/1 79/178/1
f 75/179/6 73/180/6 78/181/6 77/182/6
f 76/183/2 75/184/2 77/185/2 80/186/2
f 73/187/4 74/188/4 79/189/4 78/190/4
f 84/191/4 82/192/4 94/193/4 96/194/4
f 71/142/5 72/141/5 84/195/5 83/170/5
f 70/174/3 69/169/3 81/171/3 82/196/3
f 82/197/6 84/198/6 88/199/6 87/200/6
f 86/201/4 85/202/4 87/203/4 88/204/4
f 84/195/5 72/141/5 86/205/5 88/206/5
f 85/207/1 70/208/1 90/209/1 92/210/1
f 72/211/1 70/208/1 85/207/1 86/212/1
f 90/213/3 89/214/3 91/215/3 92/216/3
f 82/197/6 87/200/6 91/217/6 89/218/6
f 87/203/4 85/202/4 92/219/4 91/220/4
f 70/221/2 82/222/2 89/223/2 90/224/2
f 93/225/6 95/226/6 96/227/6 94/228/6
f 81/171/2 83/170/2 95/229/2 93/230/2
f 83/170/5 84/195/5 96/231/5 95/229/5
f 82/196/3 81/171/3 93/230/3 94/232/3
f 100/233/4 98/234/4 102/235/4 104/236/4
f 101/237/6 103/238/6 104/239/6 102/240/6
f 97/241/2 99/242/2 103/243/2 101/244/2
f 99/245/5 100/246/5 104/247/5 103/248/5
f 98/249/3 97/250/3 101/251/3 102/252/3
